<mxfile host="app.diagrams.net" modified="2021-06-29T19:53:09.333Z" agent="5.0 (Macintosh; Intel Mac OS X 10_15_7) AppleWebKit/537.36 (KHTML, like Gecko) Chrome/91.0.4472.114 Safari/537.36" etag="NDATRjNTd9GrRZwDcSOb" version="14.8.1" type="github">
  <diagram id="jO_XUjRUBSxXagyCRTic" name="Page-1">
    <mxGraphModel dx="946" dy="537" grid="1" gridSize="10" guides="1" tooltips="1" connect="1" arrows="1" fold="1" page="1" pageScale="1" pageWidth="827" pageHeight="1169" math="0" shadow="0">
      <root>
        <mxCell id="0" />
        <mxCell id="1" parent="0" />
        <mxCell id="xDcCuQg8WMwgXTcnJYGY-1" value="" style="rounded=0;whiteSpace=wrap;html=1;" parent="1" vertex="1">
          <mxGeometry x="330" y="92" width="130" height="60" as="geometry" />
        </mxCell>
        <mxCell id="xDcCuQg8WMwgXTcnJYGY-2" value="&lt;font style=&quot;font-size: 14px&quot;&gt;Fasta Software&amp;nbsp;&lt;/font&gt;" style="text;html=1;strokeColor=none;fillColor=none;align=center;verticalAlign=middle;whiteSpace=wrap;rounded=0;" parent="1" vertex="1">
          <mxGeometry x="360" y="109.5" width="68" height="25" as="geometry" />
        </mxCell>
        <mxCell id="xDcCuQg8WMwgXTcnJYGY-6" value="" style="rounded=0;whiteSpace=wrap;html=1;" parent="1" vertex="1">
          <mxGeometry x="85" y="120" width="80" height="110" as="geometry" />
        </mxCell>
        <mxCell id="xDcCuQg8WMwgXTcnJYGY-7" value="&lt;font style=&quot;font-size: 14px&quot;&gt;nucleotide&lt;br&gt;aminoacid&lt;br&gt;sequence&lt;br&gt;&lt;/font&gt;" style="text;html=1;strokeColor=none;fillColor=none;align=center;verticalAlign=middle;whiteSpace=wrap;rounded=0;" parent="1" vertex="1">
          <mxGeometry x="50" y="134.5" width="150" height="40" as="geometry" />
        </mxCell>
        <mxCell id="xDcCuQg8WMwgXTcnJYGY-9" value="&lt;span style=&quot;font-size: 14px&quot;&gt;FASTA format&lt;/span&gt;" style="text;html=1;align=center;verticalAlign=middle;whiteSpace=wrap;rounded=0;strokeColor=#000000;" parent="1" vertex="1">
          <mxGeometry x="92" y="191" width="59" height="30" as="geometry" />
        </mxCell>
        <mxCell id="xDcCuQg8WMwgXTcnJYGY-15" value="" style="rounded=0;whiteSpace=wrap;html=1;" parent="1" vertex="1">
          <mxGeometry x="331" y="167" width="130" height="60" as="geometry" />
        </mxCell>
        <mxCell id="xDcCuQg8WMwgXTcnJYGY-16" value="&lt;font style=&quot;font-size: 14px&quot;&gt;Blast Software&amp;nbsp;&lt;/font&gt;" style="text;html=1;strokeColor=none;fillColor=none;align=center;verticalAlign=middle;whiteSpace=wrap;rounded=0;" parent="1" vertex="1">
          <mxGeometry x="361" y="184.5" width="68" height="25" as="geometry" />
        </mxCell>
        <mxCell id="xDcCuQg8WMwgXTcnJYGY-19" value="" style="rounded=0;whiteSpace=wrap;html=1;dashed=1;strokeColor=#000000;fillColor=none;" parent="1" vertex="1">
          <mxGeometry x="310" y="70" width="170" height="180" as="geometry" />
        </mxCell>
        <mxCell id="5k7tPbhZEELwhW71Bemf-1" value="" style="rounded=0;whiteSpace=wrap;html=1;" vertex="1" parent="1">
          <mxGeometry x="331" y="274" width="130" height="60" as="geometry" />
        </mxCell>
        <mxCell id="5k7tPbhZEELwhW71Bemf-2" value="&lt;font style=&quot;font-size: 14px&quot;&gt;assembly&lt;br&gt;masurca&lt;br&gt;&lt;/font&gt;" style="text;html=1;strokeColor=none;fillColor=none;align=center;verticalAlign=middle;whiteSpace=wrap;rounded=0;" vertex="1" parent="1">
          <mxGeometry x="361" y="291.5" width="68" height="25" as="geometry" />
        </mxCell>
        <mxCell id="5k7tPbhZEELwhW71Bemf-3" value="" style="rounded=0;whiteSpace=wrap;html=1;" vertex="1" parent="1">
          <mxGeometry x="329" y="480" width="130" height="60" as="geometry" />
        </mxCell>
        <mxCell id="5k7tPbhZEELwhW71Bemf-4" value="&lt;font style=&quot;font-size: 14px&quot;&gt;assembly&lt;br&gt;pilon&lt;br&gt;&lt;/font&gt;" style="text;html=1;strokeColor=none;fillColor=none;align=center;verticalAlign=middle;whiteSpace=wrap;rounded=0;" vertex="1" parent="1">
          <mxGeometry x="359" y="497.5" width="68" height="25" as="geometry" />
        </mxCell>
        <mxCell id="5k7tPbhZEELwhW71Bemf-6" value="" style="shape=waypoint;sketch=0;fillStyle=solid;size=6;pointerEvents=1;points=[];fillColor=none;resizable=0;rotatable=0;perimeter=centerPerimeter;snapToPoint=1;dashed=1;strokeColor=#000000;" vertex="1" parent="1">
          <mxGeometry x="374" y="328" width="40" height="40" as="geometry" />
        </mxCell>
        <mxCell id="5k7tPbhZEELwhW71Bemf-7" value="" style="shape=waypoint;sketch=0;fillStyle=solid;size=6;pointerEvents=1;points=[];fillColor=none;resizable=0;rotatable=0;perimeter=centerPerimeter;snapToPoint=1;dashed=1;strokeColor=#000000;" vertex="1" parent="1">
          <mxGeometry x="373" y="410" width="40" height="40" as="geometry" />
        </mxCell>
        <mxCell id="5k7tPbhZEELwhW71Bemf-8" style="edgeStyle=orthogonalEdgeStyle;rounded=0;orthogonalLoop=1;jettySize=auto;html=1;" edge="1" parent="1">
          <mxGeometry relative="1" as="geometry">
            <mxPoint x="394" y="378" as="sourcePoint" />
            <mxPoint x="394" y="378" as="targetPoint" />
          </mxGeometry>
        </mxCell>
        <mxCell id="5k7tPbhZEELwhW71Bemf-9" value="" style="shape=waypoint;sketch=0;fillStyle=solid;size=6;pointerEvents=1;points=[];fillColor=none;resizable=0;rotatable=0;perimeter=centerPerimeter;snapToPoint=1;dashed=1;strokeColor=#000000;" vertex="1" parent="1">
          <mxGeometry x="374" y="440" width="40" height="40" as="geometry" />
        </mxCell>
        <mxCell id="5k7tPbhZEELwhW71Bemf-10" value="&lt;font style=&quot;font-size: 14px&quot;&gt;nucleotide&lt;br&gt;sequence&lt;br&gt;&lt;/font&gt;" style="text;html=1;strokeColor=none;fillColor=none;align=center;verticalAlign=middle;whiteSpace=wrap;rounded=0;" vertex="1" parent="1">
          <mxGeometry x="80" y="278.5" width="90" height="36.5" as="geometry" />
        </mxCell>
        <mxCell id="5k7tPbhZEELwhW71Bemf-11" value="&lt;span style=&quot;font-size: 14px&quot;&gt;FASTAQ format&lt;/span&gt;" style="text;html=1;align=center;verticalAlign=middle;whiteSpace=wrap;rounded=0;strokeColor=#000000;" vertex="1" parent="1">
          <mxGeometry x="95" y="335" width="59" height="30" as="geometry" />
        </mxCell>
        <mxCell id="5k7tPbhZEELwhW71Bemf-12" value="" style="rounded=0;whiteSpace=wrap;html=1;fillColor=none;" vertex="1" parent="1">
          <mxGeometry x="80" y="270" width="90" height="120" as="geometry" />
        </mxCell>
        <mxCell id="5k7tPbhZEELwhW71Bemf-18" value="" style="shape=curlyBracket;whiteSpace=wrap;html=1;rounded=1;flipH=1;strokeColor=#000000;fillColor=none;" vertex="1" parent="1">
          <mxGeometry x="220" y="115" width="40" height="284" as="geometry" />
        </mxCell>
        <mxCell id="5k7tPbhZEELwhW71Bemf-19" value="" style="rounded=0;whiteSpace=wrap;html=1;dashed=1;strokeColor=#000000;fillColor=none;" vertex="1" parent="1">
          <mxGeometry x="310" y="258" width="170" height="292" as="geometry" />
        </mxCell>
        <mxCell id="5k7tPbhZEELwhW71Bemf-21" value="" style="verticalLabelPosition=bottom;verticalAlign=top;html=1;shape=mxgraph.basic.rect;fillColor2=none;strokeWidth=1;size=20;indent=5;fillColor=none;" vertex="1" parent="1">
          <mxGeometry x="580" y="92" width="80" height="38" as="geometry" />
        </mxCell>
        <mxCell id="5k7tPbhZEELwhW71Bemf-23" value="&lt;font style=&quot;font-size: 14px&quot;&gt;fastac&lt;br&gt;&lt;/font&gt;" style="text;html=1;strokeColor=none;fillColor=none;align=center;verticalAlign=middle;whiteSpace=wrap;rounded=0;" vertex="1" parent="1">
          <mxGeometry x="585" y="98.5" width="75" height="21.5" as="geometry" />
        </mxCell>
        <mxCell id="5k7tPbhZEELwhW71Bemf-25" value="" style="verticalLabelPosition=bottom;verticalAlign=top;html=1;shape=mxgraph.basic.rect;fillColor2=none;strokeWidth=1;size=20;indent=5;fillColor=none;" vertex="1" parent="1">
          <mxGeometry x="580" y="146.5" width="80" height="38" as="geometry" />
        </mxCell>
        <mxCell id="5k7tPbhZEELwhW71Bemf-26" value="&lt;font style=&quot;font-size: 14px&quot;&gt;sickle&lt;br&gt;&lt;/font&gt;" style="text;html=1;strokeColor=none;fillColor=none;align=center;verticalAlign=middle;whiteSpace=wrap;rounded=0;" vertex="1" parent="1">
          <mxGeometry x="585" y="153" width="75" height="21.5" as="geometry" />
        </mxCell>
        <mxCell id="5k7tPbhZEELwhW71Bemf-27" value="&lt;font style=&quot;font-size: 14px&quot;&gt;assembly&lt;br&gt;Spades&lt;br&gt;&lt;/font&gt;" style="text;html=1;strokeColor=none;fillColor=none;align=center;verticalAlign=middle;whiteSpace=wrap;rounded=0;" vertex="1" parent="1">
          <mxGeometry x="362" y="377.5" width="68" height="25" as="geometry" />
        </mxCell>
        <mxCell id="5k7tPbhZEELwhW71Bemf-28" value="" style="rounded=0;whiteSpace=wrap;html=1;fillColor=none;" vertex="1" parent="1">
          <mxGeometry x="330" y="360" width="130" height="60" as="geometry" />
        </mxCell>
        <mxCell id="5k7tPbhZEELwhW71Bemf-29" value="" style="rounded=0;whiteSpace=wrap;html=1;fillColor=none;" vertex="1" parent="1">
          <mxGeometry x="85" y="640" width="80" height="60" as="geometry" />
        </mxCell>
        <mxCell id="5k7tPbhZEELwhW71Bemf-30" value="&lt;span style=&quot;font-size: 14px&quot;&gt;FASTA format&lt;/span&gt;" style="text;html=1;align=center;verticalAlign=middle;whiteSpace=wrap;rounded=0;strokeColor=#000000;" vertex="1" parent="1">
          <mxGeometry x="92" y="661" width="59" height="30" as="geometry" />
        </mxCell>
        <mxCell id="5k7tPbhZEELwhW71Bemf-31" value="" style="rounded=0;whiteSpace=wrap;html=1;fillColor=none;" vertex="1" parent="1">
          <mxGeometry x="234" y="577" width="150" height="95" as="geometry" />
        </mxCell>
        <mxCell id="5k7tPbhZEELwhW71Bemf-32" value="&lt;span style=&quot;font-size: 14px&quot;&gt;Reordering contigs&lt;/span&gt;" style="text;html=1;align=center;verticalAlign=middle;whiteSpace=wrap;rounded=0;strokeColor=#000000;" vertex="1" parent="1">
          <mxGeometry x="241" y="589" width="133" height="30" as="geometry" />
        </mxCell>
        <mxCell id="5k7tPbhZEELwhW71Bemf-34" value="" style="shape=curlyBracket;whiteSpace=wrap;html=1;rounded=1;flipH=1;strokeColor=#000000;fillColor=none;" vertex="1" parent="1">
          <mxGeometry x="410" y="577" width="40" height="93" as="geometry" />
        </mxCell>
        <mxCell id="5k7tPbhZEELwhW71Bemf-35" value="&lt;h3 style=&quot;color: rgb(51 , 51 , 51) ; text-align: left ; background-color: rgb(255 , 255 , 255)&quot;&gt;&lt;font style=&quot;font-weight: normal ; font-size: 14px&quot;&gt;Mauve Contig Mover&lt;/font&gt;&lt;/h3&gt;" style="text;html=1;align=center;verticalAlign=middle;resizable=0;points=[];autosize=1;strokeColor=none;fontFamily=Helvetica;" vertex="1" parent="1">
          <mxGeometry x="234" y="619" width="140" height="50" as="geometry" />
        </mxCell>
        <mxCell id="5k7tPbhZEELwhW71Bemf-36" value="" style="rounded=0;whiteSpace=wrap;html=1;fillColor=none;" vertex="1" parent="1">
          <mxGeometry x="234" y="690" width="150" height="60" as="geometry" />
        </mxCell>
        <mxCell id="5k7tPbhZEELwhW71Bemf-37" value="&lt;span style=&quot;font-size: 14px&quot;&gt;MLST&lt;/span&gt;" style="text;html=1;align=center;verticalAlign=middle;whiteSpace=wrap;rounded=0;strokeColor=#000000;" vertex="1" parent="1">
          <mxGeometry x="241" y="702" width="133" height="30" as="geometry" />
        </mxCell>
        <mxCell id="5k7tPbhZEELwhW71Bemf-40" value="" style="shape=curlyBracket;whiteSpace=wrap;html=1;rounded=1;flipH=1;strokeColor=#000000;fillColor=none;" vertex="1" parent="1">
          <mxGeometry x="410" y="690" width="40" height="60" as="geometry" />
        </mxCell>
        <mxCell id="5k7tPbhZEELwhW71Bemf-43" value="" style="verticalLabelPosition=bottom;verticalAlign=top;html=1;shape=mxgraph.basic.rect;fillColor2=none;strokeWidth=1;size=20;indent=5;fillColor=none;" vertex="1" parent="1">
          <mxGeometry x="575" y="50" width="95" height="188" as="geometry" />
        </mxCell>
        <mxCell id="5k7tPbhZEELwhW71Bemf-45" value="&lt;span style=&quot;font-size: 14px&quot;&gt;AMR&lt;/span&gt;" style="text;html=1;align=center;verticalAlign=middle;whiteSpace=wrap;rounded=0;strokeColor=#000000;" vertex="1" parent="1">
          <mxGeometry x="461" y="608.5" width="99" height="30" as="geometry" />
        </mxCell>
      </root>
    </mxGraphModel>
  </diagram>
</mxfile>
